<svg xmlns="http://www.w3.org/2000/svg" xmlns:xlink="http://www.w3.org/1999/xlink" width="256" height="256" viewBox="0 0 256 256">
  <defs>
    <clipPath id="clip-icon">
      <rect width="256" height="256"/>
    </clipPath>
  </defs>
  <g id="icon" clip-path="url(#clip-icon)">
    <rect width="256" height="256" fill="#eaf0f4"/>
    <g id="Group_1873" data-name="Group 1873" transform="translate(895 243)">
      <path id="Subtraction_2" data-name="Subtraction 2" d="M127.834,161.758h0c0-.017-.085-.185-1.569-.893a7.528,7.528,0,0,0-1.337-.531,10.6,10.6,0,0,0,3.168-7.379,12.329,12.329,0,0,0-2.855-7.471c.538-5.721,3.221-34.871,3.221-46.91,0-11.983-2.678-33.154-3.215-37.276a20.985,20.985,0,0,0,2.268-5.451l37.16,24.123a18.363,18.363,0,0,0-1.5,3.521,12.564,12.564,0,0,0-.279,7.361,19.115,19.115,0,0,0,3.428,6.137,18.574,18.574,0,0,0,2.2,2.3l-3.456,5.194a5.829,5.829,0,0,0-.885-.386,6.608,6.608,0,0,0-2.143-.38,5.508,5.508,0,0,0-4.548,2.459,5.149,5.149,0,0,0-.557,5.6,8.1,8.1,0,0,0,1.819,2.407l-3.041,4.685a7.063,7.063,0,0,0-3.084-.756,5.252,5.252,0,0,0-4.59,2.683,5.331,5.331,0,0,0-.4,5.594,7.044,7.044,0,0,0,1.784,2.172l-3.079,4.772a6.82,6.82,0,0,0-3-.724,5.545,5.545,0,0,0-4.468,2.26,5.1,5.1,0,0,0-.6,5.525,9.123,9.123,0,0,0,1.757,2.574l-2.872,4.472a7.413,7.413,0,0,0-2.961-.645,5.553,5.553,0,0,0-4.578,2.3,5.188,5.188,0,0,0-.528,5.51,9.461,9.461,0,0,0,1.735,2.577l-2.986,4.574ZM106.1,45.555h0c-8.147-1.617-49.74-9.682-68.534-9.682-8.139,0-20.48,1-36.68,2.983L0,38.08l3.117-4.532a5.847,5.847,0,0,0,.976.51,6.278,6.278,0,0,0,2.378.5,5.613,5.613,0,0,0,4.364-2.216,5.184,5.184,0,0,0,.644-5.874A10.024,10.024,0,0,0,9.49,23.7l2.905-4.516a7.44,7.44,0,0,0,3.38.9,5.2,5.2,0,0,0,4.467-2.52,5.362,5.362,0,0,0,.379-5.741,8.235,8.235,0,0,0-1.893-2.381l3.539-5.426a14.628,14.628,0,0,0,2.314,1.167,15.282,15.282,0,0,0,5.636,1.167,11.78,11.78,0,0,0,2.933-.364,14.363,14.363,0,0,0,6.306-3.546A12.767,12.767,0,0,0,41.489,0l67.138,43.585a28.471,28.471,0,0,0-2.527,1.969Z" transform="translate(-825.81 -208.839)" fill="#45c4ba"/>
      <path id="Path_2" data-name="Path 2" d="M23.047,6.562S65.265,0,85.6,0s69.14,9.843,69.14,9.843S164.619,0,171.2,6.562s0,16.406,0,16.406S174.5,47.576,174.5,60.7s-3.292,47.576-3.292,47.576,6.585,6.562,0,13.124-16.462,0-16.462,0-45.544,6.562-67.494,6.562-64.2-6.562-64.2-6.562-6.585,6.562-13.169,3.281-3.292-16.406-3.292-16.406S0,77.106,0,60.7,6.585,19.687,6.585,19.687,3.292,6.562,9.877,3.281,23.047,6.562,23.047,6.562Z" transform="translate(-876 -168.505)" fill="#2d87fc"/>
    </g>
  </g>
</svg>
